<svg width="512" height="512" viewBox="0 0 512 512" fill="none" xmlns="http://www.w3.org/2000/svg">
<mask id="path-1-outside-1_56_293" maskUnits="userSpaceOnUse" x="22.8559" y="273.868" width="464.966" height="246.251" fill="black">
<rect fill="white" x="22.8559" y="273.868" width="464.966" height="246.251"/>
<path d="M434.217 414.997C442.711 417.432 447.789 426.456 443.333 434.087C428.927 458.758 399.158 471.523 370.436 463.287L124.353 392.724C90.6413 383.057 71.0384 348.091 80.2503 314.359V314.359C80.3729 313.92 80.8296 313.664 81.2678 313.79L434.217 414.997Z"/>
</mask>
<path d="M124.353 392.724L115.532 423.484L115.532 423.484L124.353 392.724ZM443.333 434.087L470.967 450.224L443.333 434.087ZM443.333 434.087L415.7 417.95C408.494 430.291 393.575 436.632 379.256 432.526L370.436 463.287L361.615 494.047C404.74 506.413 449.36 487.224 470.967 450.224L443.333 434.087ZM370.436 463.287L379.256 432.526L133.173 361.963L124.353 392.724L115.532 423.484L361.615 494.047L370.436 463.287ZM124.353 392.724L133.173 361.963C116.32 357.131 106.516 339.647 111.12 322.789L80.2503 314.359L49.3807 305.929C35.5605 356.536 64.9627 408.983 115.532 423.484L124.353 392.724ZM81.2678 313.79L72.4474 344.55L425.397 445.757L434.217 414.997L443.037 384.236L90.0882 283.03L81.2678 313.79ZM80.2503 314.359L111.072 322.961C106.42 339.63 89.0828 349.321 72.4474 344.55L81.2678 313.79L90.0882 283.03C72.5763 278.008 54.3255 288.209 49.4282 305.756L80.2503 314.359ZM443.333 434.087L470.967 450.224C488.861 419.58 465.663 390.724 443.037 384.236L434.217 414.997L425.397 445.757C421.358 444.599 417.441 441.721 415.066 437.016C412.427 431.79 411.943 424.384 415.7 417.95L443.333 434.087Z" fill="white" mask="url(#path-1-outside-1_56_293)"/>
<mask id="path-3-outside-2_56_293" maskUnits="userSpaceOnUse" x="20.8203" y="-4.24717" width="470.361" height="252.481" fill="black">
<rect fill="white" x="20.8203" y="-4.24717" width="470.361" height="252.481"/>
<path d="M310.593 49.692C375.242 40.6062 435.39 81.5087 451.962 142.957C454.263 151.488 448.068 159.629 439.317 160.859L90.7427 209.848C81.9921 211.078 73.7925 204.96 73.6528 196.125C72.6461 132.489 119.189 76.592 183.839 67.5061L310.593 49.692Z"/>
</mask>
<path d="M310.593 49.692L306.139 18.0034L306.139 18.0034L310.593 49.692ZM451.962 142.957L421.066 151.289L451.962 142.957ZM310.593 49.692L315.046 81.3806C363.51 74.5696 408.645 105.235 421.066 151.289L451.962 142.957L482.858 134.624C462.134 57.7821 386.975 6.64281 306.139 18.0034L310.593 49.692ZM439.317 160.859L434.863 129.17L86.2891 178.159L90.7427 209.848L95.1962 241.536L443.771 192.547L439.317 160.859ZM73.6528 196.125L105.649 195.618C104.894 147.925 139.829 106.006 188.292 99.1947L183.839 67.5061L179.385 35.8176C98.5493 47.1783 40.3979 117.053 41.6568 196.631L73.6528 196.125ZM183.839 67.5061L188.292 99.1947L315.046 81.3806L310.593 49.692L306.139 18.0034L179.385 35.8176L183.839 67.5061ZM90.7427 209.848L86.2891 178.159C93.8348 177.099 105.442 182.533 105.649 195.618L73.6528 196.125L41.6568 196.631C42.1433 227.386 70.1495 245.056 95.1962 241.536L90.7427 209.848ZM451.962 142.957L421.066 151.289C417.658 138.654 427.318 130.231 434.863 129.17L439.317 160.859L443.771 192.547C468.817 189.027 490.868 164.322 482.858 134.624L451.962 142.957Z" fill="white" mask="url(#path-3-outside-2_56_293)"/>
<path d="M81.6703 260.883C82.5926 254.32 88.6606 249.748 95.2235 250.67L451.72 300.772C458.283 301.695 462.856 307.763 461.933 314.326V314.326C461.011 320.889 454.943 325.461 448.38 324.539L91.8834 274.437C85.3205 273.514 80.7479 267.446 81.6703 260.883V260.883Z" fill="white"/>
<path d="M286.902 261.893C289.371 262.984 290.517 264.925 290.915 265.676C291.019 265.874 291.063 266.089 291.146 266.277L293.984 266.739C295.469 265.919 297.603 265.25 300.258 266.106C300.933 266.325 301.45 266.722 301.957 267.039C302.697 266.947 303.505 266.909 304.353 267.06C304.792 267.138 305.17 267.347 305.556 267.481C306.21 267.251 306.934 266.955 307.782 266.911C309.003 266.85 310.051 267.132 310.983 267.487C311.101 267.503 311.243 267.455 311.363 267.477C312.407 267.671 313.259 268.102 313.99 268.54L314.176 268.567C315.124 268.933 315.848 269.454 316.442 269.958C317.134 269.225 318.904 267.609 321.784 267.427C324.721 267.243 326.607 268.719 327.809 269.914C328.659 270.233 329.337 270.632 329.915 271.094C331.16 270.614 332.761 270.235 334.643 270.686C336.013 271.016 337.03 271.681 337.82 272.331C339.496 271.62 341.785 271.032 344.334 272.237C346.236 273.139 347.251 274.587 347.788 275.499C348.825 275.714 349.791 276.152 350.646 276.722L350.637 276.783C350.755 276.727 350.857 276.633 350.982 276.579C351.505 276.359 352.135 276.306 352.74 276.195C353.075 276.066 353.384 275.736 353.764 275.645C355.606 275.212 357.586 275.429 359.351 276.304C359.925 276.589 360.362 276.988 360.786 277.326C360.912 277.377 361.019 277.446 361.14 277.502C362.681 276.904 364.329 276.844 365.912 277.226C367.642 276.714 369.513 276.846 371.287 277.603C371.605 277.386 371.874 277.049 372.275 276.858C374.365 275.871 377.185 275.673 379.745 277.15C381.008 277.883 381.792 278.851 382.305 279.593C382.823 279.478 383.355 279.386 383.913 279.377C385 278.934 386.278 278.595 387.783 278.785C388.775 277.988 390.657 276.785 393.347 276.916C395.466 277.021 396.922 277.996 397.992 278.894C399.855 278.167 402.263 277.88 404.648 279.136C405.765 279.728 406.522 280.505 407.075 281.181C407.614 281.213 408.162 281.191 408.754 281.354C409.527 280.91 410.477 280.407 411.686 280.251L413.896 280.246C415.998 280.549 417.63 281.671 418.657 282.745C418.708 282.798 418.707 282.896 418.755 282.949C419.793 283.292 420.72 283.701 421.409 284.268C421.643 284.461 421.746 284.774 421.941 284.974C422.347 284.978 422.772 284.89 423.205 284.963C423.283 284.976 423.368 285.044 423.444 285.059C423.558 285.027 423.661 284.945 423.78 284.917C424.09 284.843 424.419 284.96 424.726 284.924C425.353 284.746 426.036 284.71 426.776 284.707C427.878 284.172 429.409 283.666 431.246 283.884C431.409 283.903 431.567 284.049 431.724 284.077C432.034 283.963 432.316 283.722 432.669 283.642C435.605 282.976 438.243 284.036 439.912 285.543C440.309 285.904 440.472 286.438 440.746 286.797C441.054 286.815 441.364 286.806 441.683 286.865C443.055 286.423 444.727 286.271 446.659 286.933C448.218 286.912 449.731 287.186 451.055 287.993C451.338 288.166 451.55 288.414 451.79 288.601C453.244 289.355 454.085 290.483 454.633 291.273C454.946 291.425 455.249 291.538 455.518 291.713L455.659 291.606C455.964 291.408 457.474 290.437 459.633 290.272C460.935 290.176 462.809 290.365 464.63 291.542C466.068 292.473 466.924 293.695 467.457 294.779C467.694 295.072 468.001 295.355 468.211 295.706C468.285 295.831 468.208 296.032 468.274 296.156C468.5 296.231 468.783 296.159 469.016 296.261C470.375 296.852 472.373 298.209 473.366 300.785C473.784 301.88 473.843 302.915 473.824 303.816C474.56 305.716 474.421 307.368 474.021 308.703C474.491 309.386 474.915 310.206 475.184 311.202C476.479 315.992 473.324 319.076 472.19 319.933C471.658 320.334 471.036 320.488 470.566 320.714C470.523 320.886 470.543 321.095 470.487 321.271C470.419 321.488 470.234 321.655 470.153 321.855C470.239 322.605 470.309 323.547 470.088 324.56C469.809 325.825 469.141 327.213 467.967 328.428L467.826 328.534C467.655 329.296 467.315 330.258 466.691 331.215C465.4 333.177 463.338 334.461 461.078 334.781C459.2 335.042 457.702 334.591 457.038 334.339C456.305 334.059 455.771 333.692 455.454 333.485C454.954 333.742 454.481 334.058 453.9 334.214L453.891 334.276C453.037 334.946 451.761 335.52 450.27 335.786C449.541 336.486 448.251 337.616 446.236 337.996C442.784 338.641 440.19 336.931 438.832 335.441C437.834 335.568 436.722 335.66 435.508 335.29C435.224 335.203 435.002 334.975 434.747 334.867C433.956 335.388 432.788 336.026 431.215 336.201C429.582 336.382 428.095 335.972 426.793 335.327C424.972 334.944 423.74 333.993 422.873 333.135C421.743 333.756 420.189 334.437 418.226 334.312C416.167 334.179 414.696 333.298 413.635 332.405C411.529 332.617 409.602 332.119 408.143 331.065C407.732 330.767 407.52 330.298 407.221 329.989C407.049 329.88 406.844 329.839 406.69 329.725C406.41 329.966 406.179 330.377 405.808 330.611C404.448 331.458 402.056 332.353 399.243 331.518C397.692 331.057 396.636 330.166 395.879 329.405C395.395 329.066 394.987 328.715 394.639 328.347C393.535 328.184 392.585 327.902 391.8 327.443C391.557 327.616 391.286 327.785 390.97 327.957C390.181 328.56 389.074 329.292 387.58 329.627C385.166 330.163 382.804 329.59 380.948 328.316C380.514 328.017 380.283 327.548 379.964 327.231C379.411 327.447 378.822 327.762 378.11 327.854L377.924 327.828C376.947 328.321 375.644 328.857 374.002 328.791C371.69 328.696 369.918 327.636 368.817 326.611C368.262 326.091 367.967 325.476 367.656 324.996C366.863 325.234 365.975 325.492 364.943 325.435C364.779 325.426 364.616 325.323 364.457 325.304C363.513 325.751 362.289 326.214 360.799 326.178C359.858 326.153 359.051 325.849 358.297 325.574C357.076 326.046 355.523 326.476 353.684 326.062C351.754 325.625 350.495 324.545 349.666 323.667C349.259 323.741 348.824 323.916 348.367 323.926C347.953 323.935 347.575 323.744 347.2 323.699C347.085 323.715 346.982 323.83 346.864 323.841C345.524 323.969 344.368 323.762 343.389 323.416C342.936 323.629 342.479 323.953 341.906 324.091C339.29 324.723 336.761 323.954 334.991 322.551C334.52 322.177 334.288 321.651 333.971 321.272C332.746 320.679 331.877 319.949 331.342 319.324C331.028 318.957 330.895 318.508 330.685 318.159C328.969 318.082 327.469 317.674 326.271 316.782C325.866 317.142 325.518 317.704 324.895 318.04C323.229 318.932 320.87 319.314 318.461 318.461C317.059 318.889 315.633 318.834 314.113 318.418C313.361 318.497 312.542 318.634 311.647 318.45C311.397 318.398 311.16 318.229 310.93 318.16C309.269 318.627 307.247 318.825 305.122 317.722C303.897 317.085 303.041 316.261 302.465 315.519L301.649 314.142C301.381 314.53 300.783 315.352 299.797 316.09C298.755 316.866 296.563 318.042 293.658 317.563C293.537 317.543 293.42 317.411 293.304 317.387C292.308 317.697 291.126 317.969 289.778 317.775C287.74 317.475 286.281 316.474 285.353 315.575C284.651 315.647 283.885 315.849 283.064 315.695C281.37 315.373 280.168 314.548 279.295 313.777C277.614 314.197 275.735 314.217 273.982 313.409C272.377 312.667 271.404 311.551 270.873 310.826C269.865 311.371 268.57 311.883 266.942 311.852C264.849 311.809 263.309 310.989 262.201 310.112C261.542 310.383 260.754 310.586 259.851 310.666C257.852 310.84 256.006 310.24 254.615 309.299C254.505 309.223 254.444 309.086 254.341 309.008C253.105 309.522 251.581 309.894 249.772 309.628C249.215 309.545 248.742 309.266 248.268 309.101C247.081 309.723 245.387 310.371 243.277 310.04C241.837 309.814 240.693 309.236 239.817 308.607C238.687 307.993 237.843 307.25 237.32 306.616C237.239 306.516 237.19 306.37 237.116 306.271C236.379 306.056 235.701 305.899 235.135 305.551C234.578 305.824 233.923 306.067 233.147 306.218C232.065 306.734 230.638 307.261 228.863 307.068C225.884 306.739 224.096 304.926 223.313 303.89C223.063 303.558 223.011 303.138 222.834 302.812C222.616 302.705 222.452 302.534 222.258 302.416C221.243 302.666 220.107 302.816 218.829 302.565C218.491 303.01 217.939 303.802 216.986 304.452C215.759 305.289 213.38 306.29 210.457 305.554C209.961 305.428 209.579 305.057 209.165 304.868C208.686 304.846 208.183 304.905 207.662 304.783C207.061 304.641 206.528 304.408 206.043 304.176C205.345 304.309 204.58 304.442 203.745 304.358C202.365 304.219 201.256 303.64 200.33 303.058C199.944 302.996 199.495 303.074 199.084 302.946C197.693 302.507 196.709 301.733 195.951 300.991C195.154 301.248 194.273 301.356 193.255 301.306C192.185 301.981 190.625 302.826 188.512 302.722C184.051 302.496 182.047 299.088 181.625 298.283C181.363 297.782 181.274 297.25 181.136 296.826C179.939 297.56 178.283 298.073 176.135 297.827C175.145 298.261 173.887 298.724 172.363 298.622C171.45 298.559 170.71 298.187 170.001 297.912C169.287 298.424 168.324 299.046 167.026 299.324C164.331 299.894 161.869 299.003 160.199 297.607C160.061 297.492 160.002 297.301 159.879 297.184C159.292 297.013 158.672 296.927 158.128 296.622C158.068 296.588 158.018 296.507 157.96 296.472C157.419 296.766 156.849 297.233 156.123 297.413C152.689 298.25 149.84 296.696 148.313 295.053C148.184 294.913 148.115 294.708 148.003 294.568C147.345 294.963 146.538 295.396 145.521 295.608C143.804 295.962 142.204 295.595 140.809 295.008C140.223 294.94 139.711 294.825 139.217 294.658L139.076 294.765C137.658 294.856 136.473 294.508 135.451 294.066C133.424 293.685 131.935 292.604 130.999 291.61C130.699 292.003 130.176 292.679 129.376 293.275C128.503 293.92 126.866 294.868 124.607 294.877C122.53 294.884 120.929 294.163 119.778 293.315C119.237 293.375 118.663 293.578 118.046 293.513C115.354 293.225 113.596 291.737 112.7 290.679C112.135 290.01 111.815 289.329 111.574 288.817C111.287 288.805 111.006 288.742 110.707 288.695C109.685 289.38 107.988 290.286 105.708 290.138C105.048 290.094 104.511 289.747 103.956 289.577C103.375 289.648 102.767 289.83 102.101 289.758C99.9292 289.513 98.2974 288.466 97.3048 287.506C97.005 287.215 96.8511 286.823 96.622 286.526C95.8028 286.512 94.9341 286.427 94.0312 286.099C93.355 285.851 92.8496 285.383 92.3494 285.042C92.2864 285.037 92.2189 285.084 92.155 285.078L92.1019 285.007C90.671 285.287 88.9754 285.425 87.1776 284.568C86.6459 284.313 86.2731 283.873 85.8672 283.563C85.5299 283.437 85.2937 283.154 84.9997 282.999C84.8465 283.067 84.7013 283.183 84.523 283.248C84.0704 283.412 82.4138 283.974 80.3076 283.602C79.0978 283.385 77.6306 282.867 76.3435 281.72C75.0523 280.557 74.311 279.152 73.9662 277.977L73.9836 277.854C72.8925 277.544 71.5077 277.026 70.2932 275.82C69.2154 274.749 68.3246 273.212 68.0203 271.335C67.7355 269.555 68.1042 268.045 68.4967 267.047C68.9117 266.002 69.6155 265.29 70.0824 264.746C69.7993 262.953 70.0672 261.138 70.9369 259.564C71.2592 258.985 71.7202 258.553 72.0827 258.147C72.2515 256.744 72.6343 255.501 73.356 254.476C73.3585 254.393 73.3856 254.314 73.3908 254.229L73.2757 254.149C73.1072 253.812 72.6418 252.855 72.439 251.57C72.2844 250.585 71.8691 246.111 76.1064 243.439C77.7632 242.396 79.3988 242.152 80.6378 242.183C81.1736 241.27 81.9578 240.258 83.2303 239.454C86.2156 237.573 88.9663 238.344 90.6098 239.04C91.2626 238.522 92.3874 237.759 93.9914 237.432C96.0651 237.013 98.2221 237.476 99.9514 238.585L100.005 238.656C100.969 238.287 102.164 237.962 103.557 238.082C105.259 238.23 106.598 238.967 107.617 239.726C108.118 239.633 108.645 239.501 109.225 239.51C110.622 239.538 111.798 239.953 112.754 240.448C112.917 240.486 113.078 240.531 113.241 240.579C114.66 239.863 116.713 239.126 119.205 239.903L119.312 240.044C120.681 240.094 122.106 240.367 123.38 241.184C123.542 241.288 123.615 241.507 123.761 241.616C124.715 241.547 125.781 241.612 126.927 241.998C128.476 242.523 129.504 243.452 130.264 244.297C132.347 243.868 134.494 244.136 136.25 245.265C136.313 245.305 136.358 245.373 136.418 245.415L136.41 245.477C136.67 245.242 136.882 244.873 137.221 244.644C138.646 243.688 141.383 242.603 144.538 243.779C145.15 244.008 145.566 244.501 146.034 244.809C147.684 243.952 150.134 243.15 153.024 244.467C154.306 245.054 155.22 245.918 155.867 246.696C156.821 246.629 157.874 246.75 159.023 247.14C159.197 247.199 159.321 247.39 159.484 247.457C159.701 247.398 159.92 247.216 160.155 247.173C163.176 246.631 165.27 247.993 166.682 249.226C167.242 249.011 167.874 248.884 168.573 248.798C169.09 248.607 169.65 248.303 170.295 248.219C173.008 247.876 175.268 248.964 176.699 250.255L176.69 250.317L176.761 250.264C177.686 250.133 178.537 250.226 179.333 250.373C180.219 250.059 181.2 249.952 182.347 250.039C182.585 249.988 182.812 249.857 183.071 249.825C185.29 249.565 187.136 250.372 188.537 251.351C189.253 251.206 190.037 250.965 190.914 251.054C192.619 251.231 193.874 252.01 194.842 252.742C196.155 252.46 197.613 252.386 199.112 252.9C199.328 252.975 199.498 253.148 199.696 253.235C199.863 253.242 200.036 253.163 200.208 253.181C201.59 253.327 202.67 253.849 203.57 254.41C204.128 254.14 204.707 253.749 205.451 253.602C205.858 253.521 206.271 253.538 206.661 253.519C206.896 253.473 207.129 253.393 207.377 253.368C209.54 252.168 212.798 251.74 215.677 253.587C216.702 254.247 217.415 255.043 217.901 255.73L218.761 257.24L218.735 257.425C219.064 257.631 219.517 257.647 219.806 257.891C220.001 258.057 220.057 258.349 220.223 258.518C220.323 258.559 220.427 258.579 220.524 258.623C220.998 258.664 221.447 258.696 221.885 258.815C222.155 258.672 222.398 258.422 222.715 258.3C223.804 257.883 225.025 257.805 226.303 257.921C227.066 257.409 227.993 256.857 229.199 256.624C231.315 256.217 232.987 256.763 234.318 257.47C234.875 257.319 235.456 257.293 236.112 257.28C237.373 256.996 238.831 256.859 240.39 257.376C241.042 257.594 241.525 258.054 242.019 258.362C242.145 258.358 242.278 258.289 242.408 258.291C242.64 258.294 242.858 258.427 243.08 258.448C243.205 258.383 243.298 258.243 243.433 258.182C245.515 257.242 248.271 257.112 250.77 258.519C251.254 258.792 251.591 259.196 251.957 259.507C252.6 259.236 253.367 259.036 254.245 258.945C255.394 258.829 256.487 259.025 257.472 259.335C257.957 259.307 258.464 259.162 259.001 259.234C259.844 259.349 260.572 259.688 261.23 259.989C263.134 259.075 265.839 258.699 268.478 260.061C269.267 260.473 269.781 261.085 270.284 261.577C271.049 261.659 271.845 261.804 272.663 262.164C273.074 262.346 273.353 262.721 273.69 262.94C274.617 262.408 275.937 261.801 277.639 261.791C278.49 261.787 279.247 262.09 279.964 262.307C281.603 261.419 283.977 260.603 286.902 261.893ZM239.994 308.695L243.081 309.634L239.879 308.616L239.994 308.695ZM185.832 297.991C186.404 298.461 187.182 298.854 188.062 299.188C187.236 298.859 186.447 298.496 185.832 297.991ZM106.649 280.299L106.128 280.415L106.853 280.643C106.888 280.708 106.911 280.778 106.951 280.846L107.136 280.872C106.999 280.625 106.812 280.455 106.719 280.245L107.709 279.943L106.214 279.354C106.262 279.512 106.434 279.844 106.649 280.299ZM106.676 280.555L106.552 280.537L106.128 280.415L106.676 280.555ZM106.8 280.572L106.676 280.555L106.128 280.415L106.649 280.299C106.692 280.389 106.748 280.474 106.8 280.572ZM107.709 279.943L106.719 280.245C106.52 279.792 106.26 279.505 106.214 279.354L107.709 279.943ZM359.628 312.507C359.631 312.637 359.653 312.736 359.655 312.764C359.655 312.764 359.646 312.624 359.628 312.507ZM447.679 323.241C447.679 323.437 447.673 323.587 447.68 323.683C447.687 323.79 447.688 323.916 447.698 324.001L447.769 323.948C447.738 323.741 447.766 323.487 447.749 323.188L447.679 323.241ZM232.649 293.147C232.563 293.305 232.436 293.437 232.332 293.607C232.374 293.556 232.506 293.548 232.535 293.51C232.618 293.402 232.64 293.258 232.711 293.156L232.649 293.147ZM242.411 294.645L242.632 294.866C242.642 294.937 242.661 295 242.668 295.06C242.659 295.006 242.648 294.941 242.632 294.866C242.621 294.808 242.572 294.713 242.543 294.601L242.411 294.645ZM242.632 294.866L242.411 294.645L242.543 294.601C242.559 294.699 242.621 294.782 242.632 294.866ZM251.381 294.139L251.991 294.287L252.009 294.164L251.381 294.139ZM251.991 294.287L251.381 294.139L252.009 294.164L251.991 294.287ZM244.674 283.034C243.758 283.366 242.754 283.516 241.528 283.413C241.085 283.549 240.653 283.913 240.124 283.973C238.346 284.17 236.635 283.781 235.216 282.968C234.511 283.106 233.771 283.123 232.936 283.026C232.676 283.08 232.428 283.205 232.15 283.231C232.853 283.996 233.331 284.656 233.533 285.066C234.217 285.493 234.827 285.859 235.25 286.317C235.787 286.233 236.357 286.271 236.956 286.305C237.663 285.575 240.115 283.416 243.854 283.929C244.258 283.679 244.736 283.448 245.275 283.245L245.16 283.166C244.99 283.124 244.834 283.086 244.674 283.034ZM297.816 292.018C296.827 291.672 295.922 291.227 295.232 290.645C294.725 290.216 294.481 289.647 294.168 289.233L294.044 289.216C293.262 288.742 292.725 288.104 292.255 287.576C291.635 288.071 290.51 288.724 288.952 289.068C289.844 290.112 290.357 291.038 290.513 291.433C290.673 291.836 290.682 292.284 290.781 292.67C290.886 292.685 290.978 292.756 291.082 292.776C291.527 292.529 291.998 292.216 292.574 292.039C294.103 291.569 295.64 291.714 297.047 292.099C297.31 292.079 297.557 292.012 297.816 292.018ZM472.067 316.318C471.562 316.929 471.099 317.374 470.674 317.7L470.718 317.832C471.122 317.498 471.598 317.003 472.067 316.318ZM142.163 268.312C141.728 268.508 141.286 268.75 140.758 268.872C140.983 268.994 141.265 269.02 141.475 269.162C142.638 269.948 143.241 270.961 143.655 271.614C144.116 271.449 144.611 271.335 145.157 271.257C144.162 270.419 143.568 269.547 143.313 269.105C143.257 269.006 143.222 268.867 143.171 268.769C142.805 268.653 142.483 268.467 142.163 268.312ZM401.04 305.705C400.456 305.731 399.91 305.56 399.369 305.47C399.071 305.717 398.757 306.066 398.302 306.33C398.529 306.453 398.781 306.596 399.001 306.743C399.193 306.874 399.336 307.056 399.506 307.193C399.796 306.806 400.411 306.233 401.243 305.607C401.178 305.612 401.107 305.702 401.04 305.705ZM108.838 263.376C108.46 263.532 108.027 263.543 107.601 263.644L107.513 263.821C107.159 264.098 106.637 264.378 106.003 264.682C106.26 265.04 106.425 265.381 106.562 265.644C108.254 265.091 110.001 265.352 111.637 265.915C111.832 265.801 111.982 265.593 112.201 265.49C113.258 264.996 114.721 264.591 116.407 264.755C116.533 264.768 116.656 264.79 116.778 264.807C118.112 264.465 119.758 264.442 121.534 265.097C122.818 265.573 123.733 266.322 124.42 267.018C125.001 266.525 125.802 265.983 126.83 265.589C126.016 264.881 125.398 264.207 125.129 263.772C125.022 263.598 124.975 263.401 124.889 263.233C124.633 263.145 124.42 262.992 124.181 262.881C123.877 262.849 123.552 262.947 123.235 262.875C123.108 262.846 123.003 262.733 122.881 262.699C122.524 262.73 122.168 262.943 121.777 262.922C120.791 262.869 119.995 262.435 119.238 262.124C118.552 262.684 117.768 263.417 116.608 263.774L115.522 264.315C114.325 264.674 112.866 264.819 111.218 264.405C110.293 264.17 109.495 263.793 108.838 263.376ZM166.261 273.781C166.377 273.748 166.476 273.668 166.596 273.639C166.448 273.634 166.309 273.591 166.163 273.578C166.206 273.645 166.222 273.717 166.261 273.781ZM193.279 276.884C193.523 277.09 193.689 277.336 193.882 277.537C193.966 277.458 194.073 277.404 194.164 277.324C193.958 277.136 193.786 276.933 193.615 276.742C193.509 276.801 193.393 276.828 193.279 276.884ZM268.602 287.47C268.69 287.444 268.775 287.405 268.867 287.381C268.298 287.2 267.758 287.106 267.301 286.846C267.744 287.021 268.182 287.21 268.602 287.47ZM265.149 285.092C264.769 285.424 264.326 285.819 263.737 286.156C263.839 286.23 263.926 286.309 264.021 286.385C264.975 286.344 265.951 286.288 266.894 286.599C266.133 286.103 265.558 285.567 265.149 285.092ZM281.026 286.187C280.429 286.196 279.874 286.129 279.285 286.005C279.125 286.18 279.07 286.469 278.879 286.643C278.57 286.924 278.046 287.3 277.344 287.689C277.529 287.732 277.713 287.774 277.892 287.829C278.175 287.615 278.449 287.338 278.81 287.138L280.62 286.382C280.787 286.336 280.963 286.303 281.141 286.266L281.026 286.187ZM337.706 296.046C337.831 296.05 337.95 296.088 338.077 296.098C338.017 296.052 337.966 295.996 337.909 295.948C337.84 295.979 337.777 296.017 337.706 296.046ZM444.582 310.246C444.665 310.267 444.749 310.258 444.83 310.281C444.798 310.187 444.766 310.103 444.741 310.016C444.669 310.068 444.658 310.195 444.582 310.246ZM459.383 304.626C459.297 304.858 459.04 305.199 458.793 305.68L458.926 305.635C459.181 305.264 459.269 304.865 459.383 304.626ZM348.111 288.925L348.128 288.801C347.999 288.637 347.772 288.565 347.676 288.422C347.778 288.574 347.951 288.725 348.111 288.925ZM190.695 263.835C190.782 264.119 190.838 264.54 191.043 264.957C191.093 265.059 191.196 265.192 191.3 265.372C191.006 264.76 190.805 264.235 190.695 263.835ZM118.964 254.196C118.878 254.406 118.703 254.643 118.541 254.957C118.737 254.673 118.866 254.429 118.955 254.258L118.964 254.196ZM219.288 267.412C219.133 267.649 218.685 267.887 218.274 268.342C218.236 268.433 218.202 268.515 218.177 268.581C218.747 268.034 219.151 267.623 219.288 267.412ZM221.261 268.194C221.189 268.28 221.1 268.339 221.041 268.416C221.089 268.351 221.196 268.327 221.253 268.256L221.261 268.194ZM119.043 254.081L119.034 254.143L119.105 254.09C119.139 254.017 119.178 253.949 119.193 253.913L119.202 253.851C119.185 253.896 119.091 253.959 119.043 254.081ZM415.352 294.588C415.287 294.72 415.213 294.813 415.185 294.88C415.157 294.948 415.163 295.053 415.158 295.066C415.191 294.976 415.31 294.762 415.431 294.473C415.398 294.537 415.36 294.571 415.352 294.588ZM293.098 277.533L292.709 277.604L293.655 277.611L292.868 277.374L293.098 277.533ZM444.635 298.641C444.583 298.749 444.557 298.836 444.539 298.88C444.556 298.832 444.598 298.777 444.627 298.703L444.635 298.641ZM293.213 277.612L292.709 277.604L293.098 277.533L293.213 277.612ZM293.655 277.611L293.213 277.612L293.098 277.533L293.231 277.488L293.655 277.611ZM293.231 277.488L293.098 277.533L292.868 277.374L293.231 277.488ZM259.808 272.349L259.842 271.66L259.541 271.554L259.808 272.349ZM259.842 271.66L259.808 272.349L259.541 271.554L259.842 271.66ZM107.963 239.964C108.803 239.954 109.704 240.011 110.686 240.347C109.747 240.03 108.833 239.921 107.963 239.964Z" fill="white"/>
<circle cx="332" cy="111" r="48" fill="white"/>
<ellipse cx="113" cy="162" rx="12" ry="24" transform="rotate(15 113 162)" fill="white"/>
<path d="M187.545 110.063C189.389 123.189 185.564 134.578 179.002 135.5C172.439 136.422 165.623 126.529 163.778 113.404C161.933 100.278 165.758 88.8895 172.321 87.9671C178.884 87.0448 185.7 96.9376 187.545 110.063Z" fill="white"/>
<ellipse cx="231.001" cy="146" rx="12" ry="24" transform="rotate(28 231.001 146)" fill="white"/>
<ellipse cx="138.456" cy="363.456" rx="12" ry="24" transform="rotate(-45 138.456 363.456)" fill="white"/>
<ellipse cx="379.824" cy="430.863" rx="12" ry="24" transform="rotate(-118 379.824 430.863)" fill="white"/>
<ellipse cx="260.359" cy="396.849" rx="12" ry="24" transform="rotate(169 260.359 396.849)" fill="white"/>
</svg>
